<svg version="1.1" id="Layer_1" xmlns="http://www.w3.org/2000/svg" xmlns:xlink="http://www.w3.org/1999/xlink" x="0px" y="0px"
	 width="100%" viewBox="0 0 1024 496" enable-background="new 0 0 1024 496" xml:space="preserve">
<path fill="#000000" opacity="1.000000" stroke="none" 
	d="
M249.419067,305.673615 
	C249.120575,287.095581 240.254837,272.599854 229.445938,258.978088 
	C218.336502,244.977600 205.028702,233.049332 192.693253,220.203949 
	C184.273361,211.436020 177.302475,201.723373 174.746033,189.578445 
	C171.031845,171.933426 176.971344,156.411331 186.068848,141.778442 
	C189.624084,136.060028 193.696228,130.663376 199.858994,126.434799 
	C200.588745,132.195663 200.878906,137.284424 201.925507,142.212555 
	C204.817505,155.830322 211.724564,167.632874 219.582687,178.862366 
	C230.174988,193.999023 241.396835,208.704208 251.713104,224.022476 
	C262.384430,239.867996 269.708588,257.160065 269.151367,276.749725 
	C268.683411,293.201904 262.004974,306.989502 249.712387,317.998413 
	C249.346848,318.325806 248.941589,318.641541 248.499435,318.837860 
	C248.249710,318.948792 247.886688,318.804626 247.295959,318.749176 
	C247.980896,314.516174 248.662308,310.305054 249.419067,305.673615 
z"/>
<path fill="#000000" opacity="1.000000" stroke="none" 
	d="
M604.495667,296.237335 
	C604.382690,280.972565 603.829407,266.134338 604.217529,251.320786 
	C604.594177,236.941879 593.419067,227.758911 581.764038,227.885513 
	C568.597778,228.028519 559.594849,237.204575 559.460144,251.501709 
	C559.317322,266.666443 559.408142,281.833344 559.384827,296.999298 
	C559.383057,298.153442 559.284485,299.307465 559.203674,301.048401 
	C554.584717,301.738312 549.987488,301.484497 545.416626,301.177277 
	C543.223877,301.029907 542.974976,299.108429 542.998474,297.416779 
	C543.244568,279.766907 541.754272,262.064423 543.710144,244.475845 
	C545.644348,227.082230 559.459229,214.742523 577.113342,213.714417 
	C586.284973,213.180313 594.998474,214.388611 602.990417,219.446594 
	C606.774109,221.841202 609.489990,225.064590 611.646301,228.542618 
	C613.327576,228.879532 613.757446,227.729813 614.252502,226.987091 
	C625.217224,210.535324 654.299988,209.997223 668.405945,221.122620 
	C677.436279,228.244827 681.795166,237.715469 682.079102,248.851212 
	C682.482605,264.673645 682.145264,280.514038 682.240356,296.346008 
	C682.261292,299.834930 681.209351,301.497192 677.381226,301.432465 
	C663.569641,301.198853 665.824280,302.728149 665.703796,290.265686 
	C665.571777,276.600861 665.798523,262.931885 665.602844,249.268524 
	C665.453430,238.836166 657.808533,229.890411 648.174255,228.308289 
	C636.561401,226.401276 626.479980,231.643951 622.351440,241.626755 
	C621.031311,244.818756 621.033203,248.133224 621.024597,251.456711 
	C620.987183,265.955963 620.853149,280.457458 621.068054,294.953491 
	C621.142212,299.953918 619.405151,302.064972 614.375366,301.421906 
	C612.571106,301.191254 610.707336,301.279358 608.881653,301.395081 
	C605.427002,301.613983 603.855347,300.197174 604.495667,296.237335 
z"/>
<path fill="#000000" opacity="1.000000" stroke="none" 
	d="
M397.468018,257.376404 
	C393.355682,268.692902 389.537598,279.704712 385.310944,290.557434 
	C381.617737,300.040344 375.455933,303.869598 365.596100,303.300049 
	C356.265869,302.761078 351.501862,296.683960 348.554626,288.684570 
	C343.260437,274.315033 338.044678,259.916504 332.826660,245.519028 
	C326.077362,226.896515 319.360260,208.262360 312.621979,189.635849 
	C312.007935,187.938354 311.153351,186.283798 311.930695,184.144958 
	C316.871887,183.317886 321.844604,183.734161 326.792358,183.844467 
	C329.882629,183.913361 330.195648,186.681137 330.921295,188.794968 
	C340.485596,216.655533 349.994507,244.535126 359.532349,272.404785 
	C360.771973,276.027008 362.051941,279.636871 363.398376,283.220459 
	C364.105774,285.103180 364.957672,287.255554 367.299133,287.253754 
	C369.638855,287.251953 370.543823,285.091278 371.213684,283.217499 
	C375.135193,272.247528 378.984894,261.251770 382.838989,250.257797 
	C389.997559,229.837723 397.230652,209.442963 404.216248,188.963806 
	C405.561279,185.020554 407.501312,183.244385 411.754791,183.648270 
	C415.352692,183.989883 419.008789,183.718674 424.153503,183.718674 
	C415.060791,208.798843 406.322754,232.900711 397.468018,257.376404 
z"/>
<path fill="#000000" opacity="1.000000" stroke="none" 
	d="
M516.483032,239.774261 
	C519.069031,246.429382 519.979309,253.022949 520.052490,259.700073 
	C520.183960,271.691589 519.958008,283.687622 520.145081,295.677643 
	C520.212036,299.965698 518.781128,301.521027 514.376831,301.480804 
	C503.676849,301.383057 503.680573,301.571899 503.054718,290.675873 
	C503.000366,289.729645 502.810211,288.791199 502.593658,287.186066 
	C499.816650,290.145233 497.695251,292.907593 495.091827,295.096619 
	C480.787384,307.123962 457.986115,306.192963 444.276337,293.168152 
	C423.936432,273.844482 426.693146,236.009216 449.599060,220.717926 
	C467.880676,208.513672 504.468353,209.486893 516.483032,239.774261 
M502.574280,251.217728 
	C501.895660,248.993210 501.406860,246.688431 500.505829,244.557983 
	C496.412903,234.880554 489.319183,229.103973 478.651215,228.091019 
	C467.178558,227.001678 457.748474,230.733353 452.027588,240.920227 
	C445.968903,251.708527 445.735596,263.104492 450.977051,274.454529 
	C459.677551,293.295044 484.273895,292.092133 494.052063,281.675323 
	C502.063660,273.140472 503.680908,263.080658 502.574280,251.217728 
z"/>
<path fill="#000000" opacity="1.000000" stroke="none" 
	d="
M774.203247,276.770203 
	C771.786377,292.416840 761.781372,301.234589 746.555725,301.361877 
	C734.226135,301.464966 721.889771,301.177094 709.567139,301.488342 
	C704.497009,301.616394 703.636353,299.198608 703.939270,295.087494 
	C704.210144,291.411163 703.012756,287.262604 709.403870,287.491302 
	C720.712830,287.895996 732.033997,286.579376 743.369202,287.362579 
	C746.016113,287.545471 748.674316,286.919312 751.137939,285.796875 
	C755.784424,283.679840 758.483398,278.390686 757.486877,273.414429 
	C756.530029,268.636292 752.842102,265.484375 747.568481,265.161133 
	C739.263367,264.652100 730.913513,265.649384 722.623352,264.295288 
	C708.575745,262.000732 700.407776,252.146957 701.501404,238.642838 
	C702.592957,225.164520 712.677490,215.790085 726.383728,215.668213 
	C738.213562,215.563004 750.046265,215.707870 761.874146,215.519135 
	C765.615417,215.459412 766.781799,216.713226 766.586487,220.468552 
	C766.120972,229.417160 766.288086,229.422028 757.355469,229.419922 
	C748.524170,229.417847 739.692322,229.365448 730.861938,229.456757 
	C727.352417,229.493057 723.817139,229.818893 721.068176,232.438080 
	C715.617126,237.631927 717.763428,246.546677 724.966675,248.824631 
	C729.537292,250.270035 734.230774,249.501373 738.870605,249.697342 
	C743.518738,249.893692 748.172668,249.386703 752.819397,250.294327 
	C767.646118,253.190338 774.224792,261.111908 774.203247,276.770203 
z"/>
<path fill="#000000" opacity="1.000000" stroke="none" 
	d="
M237.104965,311.048218 
	C242.464218,324.198486 243.492371,336.875458 236.129272,349.297638 
	C234.172562,352.598785 231.864792,355.579590 228.725967,357.624023 
	C227.639771,357.318298 227.493210,356.586548 227.648895,355.970886 
	C231.049881,342.520782 224.779663,332.080872 217.198273,322.004181 
	C209.247543,311.436523 198.794388,303.214630 190.331223,293.117310 
	C176.757965,276.923157 180.376083,249.520233 197.674347,238.611786 
	C198.678207,238.869781 198.905884,239.685608 198.892746,240.525574 
	C198.716461,251.799454 204.139862,260.977661 209.978226,269.963684 
	C216.784866,280.440033 225.226944,289.770233 231.589050,300.557587 
	C233.528671,303.846344 235.165756,307.313538 237.104965,311.048218 
z"/>
<path fill="#000000" opacity="1.000000" stroke="none" 
	d="
M793.623657,237.999939 
	C793.623291,230.391983 793.623291,223.283997 793.623291,215.635422 
	C798.421936,215.635422 802.541016,215.618927 806.659973,215.640244 
	C810.493469,215.660080 810.126953,218.537628 810.136353,220.989258 
	C810.184509,233.479721 810.169434,245.970459 810.173401,258.461090 
	C810.177307,270.785217 810.051514,283.111328 810.247375,295.432343 
	C810.315918,299.744720 809.364807,301.718872 804.436707,301.507050 
	C792.044739,300.974304 793.702087,302.999573 793.646179,290.460999 
	C793.568848,273.140961 793.625061,255.820328 793.623657,237.999939 
z"/>
<path fill="#000000" opacity="1.000000" stroke="none" 
	d="
M812.342041,191.168259 
	C811.857910,198.047623 808.324829,202.218475 802.726501,202.962509 
	C797.886658,203.605759 793.011658,200.245560 791.406494,195.159866 
	C789.924988,190.466080 792.026245,185.352371 796.453552,182.877197 
	C803.062622,179.182266 810.162964,182.705551 812.342041,191.168259 
z"/>
</svg>